<svg xmlns="http://www.w3.org/2000/svg" xmlns:xlink="http://www.w3.org/1999/xlink" xmlns:lucid="lucid" width="1158.75" height="620"><g transform="translate(-81.25 -360)" lucid:page-tab-id="0_0"><path d="M122.63 641.3h-19.75c-.9 0-1.63-.72-1.63-1.6v-2.43c0-9.04 5.94-16.6 14.75-18.74.4-.1.8-.04 1.16.16 2.6 1.38 5.4 1.38 8 0 .38-.2.75-.26 1.16-.17 2.3.57 4.22 1.4 6.2 2.72l-1.82 2.7c-1.47-.97-2.85-1.6-4.57-2.06-3.28 1.5-6.66 1.5-9.94 0-7.04 1.95-11.7 8.1-11.7 15.37v.8h18.13z" stroke="#fff" stroke-opacity="0" fill="#666"/><path d="M121.14 622.9c-5.88 0-10.64-4.75-10.64-10.6 0-5.88 4.76-10.63 10.64-10.63 5.87-.07 10.66 4.65 10.72 10.5.05 4.05-2 7.5-5.57 9.42-1.66.9-3.26 1.3-5.16 1.3zm0-18c-4.1 0-7.46 3.3-7.48 7.4 0 2.77 1.4 5.15 3.87 6.46 2.33 1.26 4.9 1.26 7.22 0 2.48-1.33 3.9-3.76 3.87-6.58-.05-4.06-3.4-7.3-7.48-7.26zM175.86 641.3H156.1v-3.23h18.14v-.8c0-7.3-4.67-13.43-11.7-15.4-3.28 1.54-6.66 1.54-9.95 0-1.73.5-3.14 1.15-4.62 2.17l-1.84-2.66c1.97-1.37 3.88-2.24 6.2-2.83.4-.1.8-.05 1.2.16 2.56 1.4 5.4 1.4 8 0 .38-.2.76-.24 1.17-.15 8.8 2.12 14.76 9.7 14.76 18.72v2.42c0 .88-.72 1.6-1.6 1.6z" stroke="#fff" stroke-opacity="0" fill="#666"/><path d="M157.53 622.9c-5.9 0-10.7-4.8-10.7-10.72 0-5.9 4.83-10.67 10.75-10.67s10.7 4.82 10.7 10.73c0 4.02-2.04 7.44-5.58 9.37-1.67.9-3.28 1.3-5.17 1.3zm0-18c-4.1 0-7.44 3.28-7.46 7.4-.02 2.77 1.4 5.15 3.86 6.45 2.32 1.27 4.9 1.27 7.23 0 2.5-1.32 3.95-3.76 3.9-6.6-.08-4.07-3.45-7.33-7.53-7.24zM165.26 677.72H113.4c-.9 0-1.6-.72-1.6-1.62v-3.44c-.06-12.46 8.2-22.94 20.3-25.88.45-.13.84-.07 1.22.12 3.86 2.08 8.1 2.08 12 0 .34-.2.72-.25 1.16-.12 12.17 2.9 20.43 13.4 20.37 25.88v3.44c0 .9-.7 1.62-1.6 1.62zm-50.22-3.23h48.56v-1.84c0-10.72-6.93-19.75-17.34-22.54-4.57 2.2-9.36 2.2-13.93 0-10.4 2.8-17.3 11.82-17.3 22.54z" stroke="#fff" stroke-opacity="0" fill="#666"/><path d="M139.38 651.65c-2.57 0-4.76-.55-7.04-1.77-7.07-3.88-9.67-12.7-5.8-19.8 3.87-7.04 12.72-9.63 19.82-5.8 7.06 3.9 9.66 12.72 5.8 19.8-1.4 2.56-3.23 4.4-5.8 5.8-2.25 1.22-4.44 1.77-6.98 1.77zm0-25.5c-4.24-.05-7.9 2.08-9.93 5.8-2.92 5.4-.94 12.16 4.47 15.1 3.5 1.87 7.36 1.87 10.86 0 3.77-2.04 5.93-5.68 5.87-9.93-.1-6.12-5.14-11.05-11.27-10.96z" stroke="#fff" stroke-opacity="0" fill="#666"/><path d="M176.3 641.3h-37.84c-.65 0-1.17-.5-1.17-1.17v-2.5c-.05-9.1 5.98-16.74 14.8-18.9.34-.08.62-.04.9.1 2.8 1.5 5.9 1.5 8.76 0 .24-.14.52-.18.84-.1 8.88 2.13 14.9 9.78 14.86 18.9v2.5c0 .66-.52 1.18-1.16 1.18zm-36.64-2.34h35.43v-1.34c0-7.82-5.07-14.4-12.66-16.44-3.34 1.6-6.83 1.6-10.16 0-7.6 2.04-12.62 8.62-12.62 16.44z" stroke="#fff" stroke-opacity="0" stroke-width=".73" fill="#fff" fill-opacity="0"/><path d="M140.25 641.3H102.4c-.63 0-1.15-.5-1.15-1.17v-2.5c-.04-9.1 6-16.74 14.82-18.9.32-.08.6-.04.9.1 2.8 1.5 5.9 1.5 8.74 0 .25-.14.54-.18.86-.1 8.87 2.13 14.9 9.78 14.86 18.9v2.5c0 .66-.52 1.18-1.17 1.18zm-36.63-2.34h35.43v-1.34c0-7.82-5.06-14.4-12.65-16.44-3.34 1.6-6.83 1.6-10.17 0-7.6 2.04-12.6 8.62-12.6 16.44z" stroke="#fff" stroke-opacity="0" stroke-width=".73" fill="#fff" fill-opacity="0"/><path d="M300.5 747.72h161.48c.68 0 1.23-.55 1.23-1.23 0-.7.56-1.24 1.24-1.24h3.4" stroke="#666" fill="none"/><path d="M300.5 748.22h-.5v-1h.5z" fill="#666"/><path d="M482.6 745.26l-14.27 4.63v-9.28z" stroke="#666" fill="#666"/><path d="M139.36 678.22v57.5c0 6.62 5.37 12 12 12h61.06" stroke="#666" fill="none"/><path d="M139.86 678.23h-1v-.5h1z" fill="#666"/><path d="M227.18 747.72l-14.26 4.63v-9.27z" stroke="#666" fill="#666"/><path d="M260 380h960v580H260z" stroke="#232f3e" stroke-width="2" fill-opacity="0"/><path d="M260 380h56v56h-56v-56z" stroke="#fff" stroke-opacity="0" fill="#232f3e"/><path d="M278.22 405.87c-.04.48.05.87.17 1.34.1.4.28.7.48 1.07.04.1.08.22.08.34 0 .2-.12.36-.28.46l-.95.62c-.12.08-.25.13-.37.13-.16 0-.33-.06-.45-.2-.2-.2-.36-.43-.52-.7-.17-.25-.3-.53-.46-.86-1.1 1.37-2.62 2.1-4.4 2.06-1.14.06-2.12-.3-2.95-1.08-.78-.8-1.15-1.76-1.1-2.85-.05-1.23.4-2.28 1.35-3.08 1.07-.85 2.3-1.23 3.66-1.16.57 0 1.02.02 1.6.1.57.1 1.1.2 1.72.33v-1.1c.08-.88-.16-1.67-.7-2.37-.74-.56-1.56-.8-2.46-.7-.53 0-1.03.07-1.6.2-.58.13-1.03.3-1.6.5l-.5.2h-.24c-.2 0-.33-.16-.33-.45v-.75c0-.18.04-.34.12-.5.12-.16.24-.26.4-.33.66-.3 1.2-.5 1.9-.67.77-.2 1.47-.3 2.3-.28 1.47-.13 2.78.26 3.9 1.2.94 1.05 1.35 2.28 1.22 3.67zm-6.07 2.28c.57 0 1.06-.1 1.6-.28.57-.2 1.02-.5 1.44-.96.23-.27.4-.56.48-.93.12-.45.16-.84.16-1.3V404c-.53-.1-.94-.17-1.43-.2H273c-.8-.08-1.55.12-2.2.58-.54.45-.8 1.04-.75 1.73-.04.6.13 1.16.54 1.6.44.38.97.52 1.55.45zm12 1.6c-.22 0-.42-.03-.6-.15-.15-.17-.23-.36-.32-.6l-3.5-11.5-.1-.62c0-.24.1-.37.36-.37h1.47c.2 0 .37.04.57.15.17.18.25.37.3.6l2.5 9.96 2.38-9.93c0-.24.08-.44.28-.6.17-.12.37-.16.58-.15h1.2c.24 0 .4.03.6.15.17.18.25.36.3.6l2.33 9.94 2.56-10c.04-.2.16-.4.33-.58.15-.1.36-.17.56-.14h1.4c.16 0 .33.1.37.3v.31s0 .2-.12.35l-3.6 11.53c-.05.22-.13.42-.3.6-.2.1-.36.14-.57.13h-1.27c-.25.04-.45-.02-.62-.15-.16-.16-.25-.36-.3-.6l-2.3-9.6-2.3 9.6c-.03.24-.1.44-.27.6-.2.13-.4.2-.62.16zm19.2.38c-.82 0-1.5-.07-2.3-.25-.65-.13-1.14-.3-1.72-.6-.2-.1-.37-.23-.45-.42-.08-.14-.12-.28-.12-.43v-.75c0-.3.12-.46.32-.46h.3l.36.16c.58.23 1.03.4 1.6.5.62.14 1.15.2 1.8.2.8.05 1.5-.1 2.2-.5.48-.3.77-.8.72-1.4.05-.4-.12-.76-.36-1.04-.46-.4-.95-.65-1.52-.8l-2.18-.68c-.94-.25-1.73-.73-2.38-1.5-.5-.65-.74-1.35-.74-2.18 0-.6.12-1.08.4-1.6.3-.5.63-.9 1.08-1.22.5-.38.98-.6 1.6-.78.66-.18 1.2-.26 1.9-.25.32-.03.6-.03.97 0l1 .16.8.22.67.26c.16.1.28.22.45.38.08.15.12.3.12.5v.7c0 .32-.12.47-.37.47-.2-.03-.37-.08-.57-.18-.95-.42-1.8-.6-2.88-.58-.7-.04-1.3.1-1.97.4-.5.3-.74.8-.7 1.36 0 .4.13.76.46 1.05.5.4.98.65 1.6.82l2.1.67c.94.24 1.67.7 2.3 1.44.48.64.7 1.3.7 2.1 0 .63-.13 1.17-.38 1.73-.3.55-.62.95-1.1 1.32-.5.4-1 .66-1.6.84-.75.23-1.4.33-2.15.34zM306.1 417.48c-5.6 3.82-11.36 5.58-18.15 5.56-8.54.05-15.82-2.74-22.16-8.45-.5-.42 0-1 .48-.68 7.07 4.05 14.03 5.9 22.2 5.9 6.1-.04 11.3-1.1 16.93-3.47.83-.35 1.52.55.7 1.13z" stroke="#fff" stroke-opacity="0" fill="#fff"/><path d="M308.16 415.2c-.64-.82-4.16-.38-5.75-.2-.46 0-.53-.36-.1-.66 2.8-1.98 7.42-1.4 8-.74.6.67-.14 5.28-2.78 7.5-.4.32-.78.13-.6-.3.54-1.52 1.86-4.83 1.24-5.6z" stroke="#fff" stroke-opacity="0" fill="#fff"/><use xlink:href="#a" transform="matrix(1,0,0,1,331,400) translate(0 14.222222222222223)"/><use xlink:href="#b" transform="matrix(1,0,0,1,331,400) translate(45.333333333333336 14.222222222222223)"/><path d="M514.93 745.45l-22.9 30.68L480 745.5l21.9-1.33 13.03 1.28zM544.82 745.46l23.16 30.85 11.77-30.78-21.66-1.35-13.28 1.3z" fill="#fbbf93"/><path d="M514.93 724.96l-22.9-30.77L480 725l22.08 1.3 12.85-1.34zM544.82 724.98l23.18-30.8 12 30.83-21.92 1.33-13.26-1.35z" fill="#6b3a19"/><path d="M544.82 724.96l23.16-1.72V694.2l-23.16 5.96v24.8z" fill="#9d5025"/><path d="M580 725l-12-1.76V694.2l12 5.97V725z" fill="#f58536"/><path d="M544.82 745.46l23.16 1.8v29.05l-23.16-6.04v-24.8z" fill="#9d5025"/><path d="M579.76 745.54L568 747.26v29.05l11.76-5.87v-24.9zM514.93 724.96L492 723.24V694.2l22.93 5.96v24.8z" fill="#f58536"/><path d="M480 725l12-1.76V694.2l-12 5.97V725z" fill="#9d5025"/><path d="M514.93 745.46l-22.93 1.8v29.05l22.93-6.04v-24.8z" fill="#f58536"/><path d="M480 745.5l12 1.76v29.05l-12-5.97V745.5z" fill="#9d5025"/><path d="M553.86 749.3l-23.9-2.37-24.07 2.32 24.07 46 23.9-45.95z" fill="#fbbf93"/><path d="M553.86 721.2l-23.9 2.37-24.07-2.32 24.07-46 23.9 45.95z" fill="#6b3a19"/><path d="M553.86 721.22L530 717.77v-42.5l23.86 11.9v34.05z" fill="#f58536"/><path d="M505.9 721.24l24.1-3.5v-42.48l-24.1 12v33.98z" fill="#9d5025"/><path d="M553.86 749.28L530 752.73v42.5l23.86-11.9V749.3z" fill="#f58536"/><path d="M505.9 749.26l24.1 3.5v42.48l-24.1-12v-33.98z" fill="#9d5025"/><use xlink:href="#c" transform="matrix(1,0,0,1,480,795.2562658433952) translate(17.025 14.4)"/><use xlink:href="#d" transform="matrix(1,0,0,1,480,795.2562658433952) translate(5.599999999999994 36)"/><path d="M271 787.28l-21.1 10.44v-120l21.1 10.56v99z" fill="#f58536"/><path d="M228.8 787.28l21.1 10.44v-120l-21.1 10.56v99z" fill="#9d5025"/><path d="M241.94 721.37l-35.58-4.5V699.4l35.58 8.32v13.65z" fill="#f58536"/><path d="M200 702.54l6.36-3.15v17.47l-6.36 1.76v-16.1z" fill="#9d5025"/><path d="M241.95 721.37l-7.38 1.08-34.57-3.82 6.38-1.76 35.57 4.5z" fill="#6b3a19"/><path d="M294.72 752.8l5.27-1.08v-14h-5.28v15.08z" fill="#f58536"/><path d="M257.8 749.63l36.9 3.42v-15.33h-36.9v11.9z" fill="#9d5025"/><use xlink:href="#c" transform="matrix(1,0,0,1,200,797.7171778902823) translate(17.025 14.4)"/><use xlink:href="#e" transform="matrix(1,0,0,1,200,797.7171778902823) translate(13.524999999999999 36)"/><use xlink:href="#f" transform="matrix(1,0,0,1,200,797.7171778902823) translate(66.475 36)"/><path d="M590 476.98L529.97 483v-29.07l60 6.02v17.03z" fill="#759c3e"/><path d="M470 476.98l59.98 6.02v-29.07L470 459.95v17.03z" fill="#4b612c"/><path d="M482 420h96.14v19.44H482V420z" fill="#648339"/><path d="M566.14 444.5h-72.1l-12.02-5.06h96.14l-12.02 5.05z" fill="#3c4929"/><path d="M482 497.55h96.14V517H482v-19.45z" fill="#648339"/><path d="M566.14 492.5h-72.1l-12.02 5.04h96.14l-12.02-5.05z" fill="#b7ca9d"/><use xlink:href="#g" transform="matrix(1,0,0,1,470,517) translate(39.85 14.4)"/><use xlink:href="#h" transform="matrix(1,0,0,1,470,517) translate(19.599999999999994 36)"/><use xlink:href="#i" transform="matrix(1,0,0,1,470,517) translate(24.549999999999997 57.6)"/><path d="M838 683.14l57.98 8.62v5.08c0 7.55-25.98 13.65-58 13.65-32 0-57.98-6.1-57.98-13.66v-5.52z" fill="#8c3123"/><path d="M838.02 719.85c24.2 0 44.93-3.54 53.58-8.5l2.88-4.78 1.15-4.4v5.45l-19 81c0 5.07-17.3 9.1-38.6 9.1-21.33 0-38.6-4.03-38.6-9.1l-19.02-81v-5.35l4.38 9.27c8.76 4.87 29.27 8.3 53.24 8.3z" fill="#8c3123"/><path d="M838 677.72c32 0 58 6.12 58 13.62 0 7.5-26 13.57-58 13.57s-58-6-58-13.56c0-7.56 26-13.62 58-13.62z" fill="#e05243"/><path d="M838 714.33c29.84 0 54.4-5.22 57.62-12.07l-19.02 81c0 5.05-17.3 9.1-38.6 9.1-21.33 0-38.6-4.05-38.6-9.1l-19.03-81c3.23 6.85 27.78 12.07 57.62 12.07z" fill="#e05243"/><use xlink:href="#j" transform="matrix(1,0,0,1,780,797.7171778902823) translate(31.5 14.4)"/><path d="M576 745.26h196.85" stroke="#333" fill="none"/><path d="M576 745.3l-3.5-.23v-.3h3.5z" fill="#333"/><path d="M787.62 745.26l-14.27 4.63v-9.28z" stroke="#333" fill="#333"/><path d="M530 658.87v-62.5" stroke="#666" fill="none"/><path d="M530 673.64l-4.64-14.27h9.28zM530 581.62l4.64 14.26h-9.28z" stroke="#666" fill="#666"/><path d="M160 848c0-4.42 3.58-8 8-8h184c4.42 0 8 3.58 8 8v33.1c0 4.42-3.58 8-8 8H168c-4.42 0-8-3.58-8-8z" stroke="#333" fill="#fff"/><use xlink:href="#k" transform="matrix(1,0,0,1,165,845) translate(63.05 14.4)"/><use xlink:href="#l" transform="matrix(1,0,0,1,165,845) translate(-2.25 36)"/><path d="M720 823.26c0-4.42 3.58-8 8-8h204c4.42 0 8 3.58 8 8V852c0 4.42-3.58 8-8 8H728c-4.42 0-8-3.58-8-8z" stroke="#333" fill="#fff"/><use xlink:href="#m" transform="matrix(1,0,0,1,725,820.2562658433952) translate(80.025 14.4)"/><use xlink:href="#l" transform="matrix(1,0,0,1,725,820.2562658433952) translate(7.75 36)"/><path d="M978.4 685.78H955.1c-2.72 0-4.97 2-4.97 4.42v24.13c0 2.44 2.26 4.42 4.98 4.42h25.84c2.75 0 4.97-2 4.97-4.42V692.3l-7.5-6.52zm4.4 28.55c0 .96-.8 1.68-1.88 1.68h-25.84c-1.07 0-1.9-.7-1.9-1.67V690.2c0-.96.83-1.68 1.9-1.68h21.83v5.27h5.9v20.53z" stroke="#000" stroke-opacity="0" fill="#2a3282"/><path d="M960.88 697.15v2.2c0 1.3-.57 1.93-1.65 1.93v1.78c1.18 0 1.65.62 1.65 1.78v2.44c0 1.28.36 2.1.97 2.63.68.77 1.9 1.07 3.65 1.07v-1.88c-.58 0-1.08-.14-1.44-.44-.2-.33-.46-.72-.46-1.35v-2c.14-1.58-.47-2.64-1.54-3.07 1.18-.4 1.68-1.35 1.68-2.93v-2.1c0-1.2.57-1.73 1.76-1.73v-1.88c-1.76 0-2.97.32-3.65.95-.6.4-.97 1.35-.97 2.6zM973.94 699.36v-2.3c0-1.3-.36-2.1-.93-2.74-.7-.53-1.92-.86-3.68-.86v1.9c1.18 0 1.76.54 1.76 1.7v2c0 1.7.6 2.74 1.68 3.17-1.18.43-1.68 1.35-1.68 2.97v2.1c0 .64-.1 1.06-.36 1.36-.36.33-.68.43-1.43.43v1.87c1.78 0 2.96-.3 3.67-.96.6-.5.93-1.47.93-2.72v-2.3c0-1.26.6-1.9 1.7-1.9v-1.8c-1.1 0-1.66-.63-1.66-1.92z" stroke="#000" stroke-opacity="0" fill="#2a3282"/><use xlink:href="#n" transform="matrix(1,0,0,1,920.1091740497284,727.75) translate(9.599999999999994 14.4)"/><use xlink:href="#o" transform="matrix(1,0,0,1,920.1091740497284,727.75) translate(57.55 14.4)"/><path d="M978.4 760H955.1c-2.72 0-4.97 2-4.97 4.42v24.13c0 2.44 2.26 4.42 4.98 4.42h25.84c2.75 0 4.97-2 4.97-4.42v-22.02l-7.5-6.53zm4.4 28.55c0 .96-.8 1.68-1.88 1.68h-25.84c-1.07 0-1.9-.72-1.9-1.68v-24.13c0-.96.83-1.68 1.9-1.68h21.83V768h5.9v20.55z" stroke="#000" stroke-opacity="0" fill="#2a3282"/><path d="M960.88 771.37v2.2c0 1.3-.57 1.93-1.65 1.93v1.78c1.18 0 1.65.62 1.65 1.78v2.44c0 1.28.36 2.1.97 2.63.68.76 1.9 1.06 3.65 1.06v-1.9c-.58 0-1.08-.12-1.44-.42-.2-.33-.46-.72-.46-1.35v-2c.14-1.6-.47-2.65-1.54-3.08 1.18-.4 1.68-1.35 1.68-2.93v-2.1c0-1.2.57-1.73 1.76-1.73v-1.9c-1.76 0-2.97.34-3.65.97-.6.4-.97 1.35-.97 2.6zM973.94 773.58v-2.3c0-1.3-.36-2.1-.93-2.74-.7-.53-1.92-.86-3.68-.86v1.9c1.18 0 1.76.54 1.76 1.7v2c0 1.7.6 2.74 1.68 3.17-1.18.43-1.68 1.35-1.68 2.97v2.1c0 .64-.1 1.06-.36 1.36-.36.33-.68.43-1.43.43v1.9c1.78 0 2.96-.3 3.67-.97.6-.52.93-1.48.93-2.73v-2.3c0-1.26.6-1.9 1.7-1.9v-1.8c-1.1 0-1.66-.63-1.66-1.92z" stroke="#000" stroke-opacity="0" fill="#2a3282"/><use xlink:href="#n" transform="matrix(1,0,0,1,920.1091740497284,801.97066268346) translate(9.599999999999994 14.4)"/><use xlink:href="#o" transform="matrix(1,0,0,1,920.1091740497284,801.97066268346) translate(57.55 14.4)"/><path d="M1000 693.78c0-4.42 3.58-8 8-8h84c4.42 0 8 3.58 8 8v16.97c0 4.42-3.58 8-8 8h-84c-4.42 0-8-3.58-8-8z" stroke="#333" fill="#fff"/><g><use xlink:href="#p" transform="matrix(1,0,0,1,1005,690.77933731654) translate(4.074999999999996 15.8375)"/></g><path d="M1000 768c0-4.42 3.58-8 8-8h84c4.42 0 8 3.58 8 8v16.97c0 4.42-3.58 8-8 8h-84c-4.42 0-8-3.58-8-8z" stroke="#333" fill="#fff"/><g><use xlink:href="#q" transform="matrix(1,0,0,1,1005,765) translate(7.125 15.8375)"/></g><path d="M952.06 686.22l-.04-.94-.16-1.32-.26-1.2-.34-1.13-.42-1.06-.5-1-.6-.97-.67-.93-.78-.9-.92-.9-1.06-.87-1.23-.85-1.46-.83-1.7-.8-2.04-.74-2.4-.66-2.85-.53-3.34-.35-3.82-.06-4.23.27-4.46.68-4.44 1.06-4.18 1.38-3.75 1.6-1.7.9" stroke="#333" fill="none"/><path d="M952.58 686.52l-.44.13-.53.66-.04-1.07 1-.04z" fill="#333"/><path d="M893.75 685.66l7.7-12.88 6.1 7z" stroke="#333" fill="#333"/><path d="M951.94 760.57l-.18-2.15-.68-2.66-1.23-2.77-1.95-2.94-2.92-3.12-4.18-3.18-5.4-2.85-5.96-1.97-5.44-.86-2-.07-3.82.28-4.54 1-11.74 4.08" stroke="#333" fill="none"/><path d="M952.46 760.78l-.32.1-.6.74-.1-1.03 1-.1z" fill="#333"/><path d="M887.78 747.28l12.5-8.28 2.48 8.93z" stroke="#333" fill="#333"/><defs><path fill="#666" d="M199 0l-22-63H83L61 0H9l90-248h61L250 0h-51zm-33-102l-36-108c-10 38-24 72-36 108h72" id="r"/><path fill="#666" d="M275 0h-61l-44-196L126 0H64L0-248h53L97-49l45-199h58l43 199 44-199h52" id="s"/><path fill="#666" d="M169-182c-1-43-94-46-97-3 18 66 151 10 154 114 3 95-165 93-204 36-6-8-10-19-12-30l50-8c3 46 112 56 116 5-17-69-150-10-154-114-4-87 153-88 188-35 5 8 8 18 10 28" id="t"/><g id="a"><use transform="matrix(0.04938271604938272,0,0,0.04938271604938272,0,0)" xlink:href="#r"/><use transform="matrix(0.04938271604938272,0,0,0.04938271604938272,11.80246913580247,0)" xlink:href="#s"/><use transform="matrix(0.04938271604938272,0,0,0.04938271604938272,28.543209876543205,0)" xlink:href="#t"/></g><path fill="#666" d="M67-125c0 53 21 87 73 88 37 1 54-22 65-47l45 17C233-25 199 4 140 4 58 4 20-42 15-125 8-235 124-281 211-232c18 10 29 29 36 50l-46 12c-8-25-30-41-62-41-52 0-71 34-72 86" id="u"/><path fill="#666" d="M25 0v-261h50V0H25" id="v"/><path fill="#666" d="M110-194c64 0 96 36 96 99 0 64-35 99-97 99-61 0-95-36-95-99 0-62 34-99 96-99zm-1 164c35 0 45-28 45-65 0-40-10-65-43-65-34 0-45 26-45 65 0 36 10 65 43 65" id="w"/><path fill="#666" d="M85 4C-2 5 27-109 22-190h50c7 57-23 150 33 157 60-5 35-97 40-157h50l1 190h-47c-2-12 1-28-3-38-12 25-28 42-61 42" id="x"/><path fill="#666" d="M88-194c31-1 46 15 58 34l-1-101h50l1 261h-48c-2-10 0-23-3-31C134-8 116 4 84 4 32 4 16-41 15-95c0-56 19-97 73-99zm17 164c33 0 40-30 41-66 1-37-9-64-41-64s-38 30-39 65c0 43 13 65 39 65" id="y"/><g id="b"><use transform="matrix(0.04938271604938272,0,0,0.04938271604938272,0,0)" xlink:href="#u"/><use transform="matrix(0.04938271604938272,0,0,0.04938271604938272,12.790123456790125,0)" xlink:href="#v"/><use transform="matrix(0.04938271604938272,0,0,0.04938271604938272,17.7283950617284,0)" xlink:href="#w"/><use transform="matrix(0.04938271604938272,0,0,0.04938271604938272,28.54320987654322,0)" xlink:href="#x"/><use transform="matrix(0.04938271604938272,0,0,0.04938271604938272,39.35802469135803,0)" xlink:href="#y"/></g><path fill="#333" d="M205 0l-28-72H64L36 0H1l101-248h38L239 0h-34zm-38-99l-47-123c-12 45-31 82-46 123h93" id="z"/><path fill="#333" d="M210-169c-67 3-38 105-44 169h-31v-121c0-29-5-50-35-48C34-165 62-65 56 0H25l-1-190h30c1 10-1 24 2 32 10-44 99-50 107 0 11-21 27-35 58-36 85-2 47 119 55 194h-31v-121c0-29-5-49-35-48" id="A"/><path fill="#333" d="M141-36C126-15 110 5 73 4 37 3 15-17 15-53c-1-64 63-63 125-63 3-35-9-54-41-54-24 1-41 7-42 31l-33-3c5-37 33-52 76-52 45 0 72 20 72 64v82c-1 20 7 32 28 27v20c-31 9-61-2-59-35zM48-53c0 20 12 33 32 33 41-3 63-29 60-74-43 2-92-5-92 41" id="B"/><path fill="#333" d="M9 0v-24l116-142H16v-24h144v24L44-24h123V0H9" id="C"/><path fill="#333" d="M100-194c62-1 85 37 85 99 1 63-27 99-86 99S16-35 15-95c0-66 28-99 85-99zM99-20c44 1 53-31 53-75 0-43-8-75-51-75s-53 32-53 75 10 74 51 75" id="D"/><path fill="#333" d="M117-194c89-4 53 116 60 194h-32v-121c0-31-8-49-39-48C34-167 62-67 57 0H25l-1-190h30c1 10-1 24 2 32 11-22 29-35 61-36" id="E"/><g id="c"><use transform="matrix(0.05,0,0,0.05,0,0)" xlink:href="#z"/><use transform="matrix(0.05,0,0,0.05,12,0)" xlink:href="#A"/><use transform="matrix(0.05,0,0,0.05,26.950000000000003,0)" xlink:href="#B"/><use transform="matrix(0.05,0,0,0.05,36.95,0)" xlink:href="#C"/><use transform="matrix(0.05,0,0,0.05,45.95,0)" xlink:href="#D"/><use transform="matrix(0.05,0,0,0.05,55.95,0)" xlink:href="#E"/></g><path fill="#333" d="M212-179c-10-28-35-45-73-45-59 0-87 40-87 99 0 60 29 101 89 101 43 0 62-24 78-52l27 14C228-24 195 4 139 4 59 4 22-46 18-125c-6-104 99-153 187-111 19 9 31 26 39 46" id="F"/><path fill="#333" d="M24 0v-261h32V0H24" id="G"/><path fill="#333" d="M84 4C-5 8 30-112 23-190h32v120c0 31 7 50 39 49 72-2 45-101 50-169h31l1 190h-30c-1-10 1-25-2-33-11 22-28 36-60 37" id="H"/><path fill="#333" d="M85-194c31 0 48 13 60 33l-1-100h32l1 261h-30c-2-10 0-23-3-31C134-8 116 4 85 4 32 4 16-35 15-94c0-66 23-100 70-100zm9 24c-40 0-46 34-46 75 0 40 6 74 45 74 42 0 51-32 51-76 0-42-9-74-50-73" id="I"/><path fill="#333" d="M63-220v92h138v28H63V0H30v-248h175v28H63" id="J"/><path fill="#333" d="M114-163C36-179 61-72 57 0H25l-1-190h30c1 12-1 29 2 39 6-27 23-49 58-41v29" id="K"/><path fill="#333" d="M59-47c-2 24 18 29 38 22v24C64 9 27 4 27-40v-127H5v-23h24l9-43h21v43h35v23H59v120" id="L"/><g id="d"><use transform="matrix(0.05,0,0,0.05,0,0)" xlink:href="#F"/><use transform="matrix(0.05,0,0,0.05,12.950000000000001,0)" xlink:href="#G"/><use transform="matrix(0.05,0,0,0.05,16.900000000000002,0)" xlink:href="#D"/><use transform="matrix(0.05,0,0,0.05,26.900000000000002,0)" xlink:href="#H"/><use transform="matrix(0.05,0,0,0.05,36.900000000000006,0)" xlink:href="#I"/><use transform="matrix(0.05,0,0,0.05,46.900000000000006,0)" xlink:href="#J"/><use transform="matrix(0.05,0,0,0.05,57.85,0)" xlink:href="#K"/><use transform="matrix(0.05,0,0,0.05,63.80000000000001,0)" xlink:href="#D"/><use transform="matrix(0.05,0,0,0.05,73.80000000000001,0)" xlink:href="#E"/><use transform="matrix(0.05,0,0,0.05,83.80000000000001,0)" xlink:href="#L"/></g><path fill="#333" d="M233-177c-1 41-23 64-60 70L243 0h-38l-65-103H63V0H30v-248c88 3 205-21 203 71zM63-129c60-2 137 13 137-47 0-61-80-42-137-45v92" id="M"/><path fill="#333" d="M100-194c63 0 86 42 84 106H49c0 40 14 67 53 68 26 1 43-12 49-29l28 8c-11 28-37 45-77 45C44 4 14-33 15-96c1-61 26-98 85-98zm52 81c6-60-76-77-97-28-3 7-6 17-6 28h103" id="N"/><g id="e"><use transform="matrix(0.05,0,0,0.05,0,0)" xlink:href="#M"/><use transform="matrix(0.05,0,0,0.05,12.950000000000001,0)" xlink:href="#D"/><use transform="matrix(0.05,0,0,0.05,22.950000000000003,0)" xlink:href="#H"/><use transform="matrix(0.05,0,0,0.05,32.95,0)" xlink:href="#L"/><use transform="matrix(0.05,0,0,0.05,37.95,0)" xlink:href="#N"/></g><path fill="#333" d="M54-142c48-35 137-8 131 61C196 18 31 33 14-55l32-4c7 23 22 37 52 37 35-1 51-22 54-58 4-55-73-65-99-34H22l8-134h141v27H59" id="O"/><path fill="#333" d="M126-127c33 6 58 20 58 59 0 88-139 92-164 29-3-8-5-16-6-25l32-3c6 27 21 44 54 44 32 0 52-15 52-46 0-38-36-46-79-43v-28c39 1 72-4 72-42 0-27-17-43-46-43-28 0-47 15-49 41l-32-3c6-42 35-63 81-64 48-1 79 21 79 65 0 36-21 52-52 59" id="P"/><g id="f"><use transform="matrix(0.05,0,0,0.05,0,0)" xlink:href="#O"/><use transform="matrix(0.05,0,0,0.05,10,0)" xlink:href="#P"/></g><path fill="#333" d="M266 0h-40l-56-210L115 0H75L2-248h35L96-30l15-64 43-154h32l59 218 59-218h35" id="Q"/><path fill="#333" d="M185-189c-5-48-123-54-124 2 14 75 158 14 163 119 3 78-121 87-175 55-17-10-28-26-33-46l33-7c5 56 141 63 141-1 0-78-155-14-162-118-5-82 145-84 179-34 5 7 8 16 11 25" id="R"/><g id="g"><use transform="matrix(0.05,0,0,0.05,0,0)" xlink:href="#z"/><use transform="matrix(0.05,0,0,0.05,11.35,0)" xlink:href="#Q"/><use transform="matrix(0.05,0,0,0.05,28.299999999999997,0)" xlink:href="#R"/></g><path fill="#333" d="M24-231v-30h32v30H24zM24 0v-190h32V0H24" id="S"/><path fill="#333" d="M101-234c-31-9-42 10-38 44h38v23H63V0H32v-167H5v-23h27c-7-52 17-82 69-68v24" id="T"/><path fill="#333" d="M96-169c-40 0-48 33-48 73s9 75 48 75c24 0 41-14 43-38l32 2c-6 37-31 61-74 61-59 0-76-41-82-99-10-93 101-131 147-64 4 7 5 14 7 22l-32 3c-4-21-16-35-41-35" id="U"/><g id="h"><use transform="matrix(0.05,0,0,0.05,0,0)" xlink:href="#F"/><use transform="matrix(0.05,0,0,0.05,12.950000000000001,0)" xlink:href="#N"/><use transform="matrix(0.05,0,0,0.05,22.950000000000003,0)" xlink:href="#K"/><use transform="matrix(0.05,0,0,0.05,28.900000000000002,0)" xlink:href="#L"/><use transform="matrix(0.05,0,0,0.05,33.900000000000006,0)" xlink:href="#S"/><use transform="matrix(0.05,0,0,0.05,37.85000000000001,0)" xlink:href="#T"/><use transform="matrix(0.05,0,0,0.05,42.85000000000001,0)" xlink:href="#S"/><use transform="matrix(0.05,0,0,0.05,46.80000000000001,0)" xlink:href="#U"/><use transform="matrix(0.05,0,0,0.05,55.80000000000001,0)" xlink:href="#B"/><use transform="matrix(0.05,0,0,0.05,65.80000000000001,0)" xlink:href="#L"/><use transform="matrix(0.05,0,0,0.05,70.80000000000001,0)" xlink:href="#N"/></g><path fill="#333" d="M240 0l2-218c-23 76-54 145-80 218h-23L58-218 59 0H30v-248h44l77 211c21-75 51-140 76-211h43V0h-30" id="V"/><path fill="#333" d="M177-190C167-65 218 103 67 71c-23-6-38-20-44-43l32-5c15 47 100 32 89-28v-30C133-14 115 1 83 1 29 1 15-40 15-95c0-56 16-97 71-98 29-1 48 16 59 35 1-10 0-23 2-32h30zM94-22c36 0 50-32 50-73 0-42-14-75-50-75-39 0-46 34-46 75s6 73 46 73" id="W"/><g id="i"><use transform="matrix(0.05,0,0,0.05,0,0)" xlink:href="#V"/><use transform="matrix(0.05,0,0,0.05,14.950000000000001,0)" xlink:href="#B"/><use transform="matrix(0.05,0,0,0.05,24.950000000000003,0)" xlink:href="#E"/><use transform="matrix(0.05,0,0,0.05,34.95,0)" xlink:href="#B"/><use transform="matrix(0.05,0,0,0.05,44.95,0)" xlink:href="#W"/><use transform="matrix(0.05,0,0,0.05,54.95,0)" xlink:href="#N"/><use transform="matrix(0.05,0,0,0.05,64.95,0)" xlink:href="#K"/></g><path fill="#333" d="M115-194c53 0 69 39 70 98 0 66-23 100-70 100C84 3 66-7 56-30L54 0H23l1-261h32v101c10-23 28-34 59-34zm-8 174c40 0 45-34 45-75 0-40-5-75-45-74-42 0-51 32-51 76 0 43 10 73 51 73" id="X"/><path fill="#333" d="M143 0L79-87 56-68V0H24v-261h32v163l83-92h37l-77 82L181 0h-38" id="Y"/><g id="j"><use transform="matrix(0.05,0,0,0.05,0,0)" xlink:href="#X"/><use transform="matrix(0.05,0,0,0.05,10,0)" xlink:href="#H"/><use transform="matrix(0.05,0,0,0.05,20,0)" xlink:href="#U"/><use transform="matrix(0.05,0,0,0.05,29,0)" xlink:href="#Y"/><use transform="matrix(0.05,0,0,0.05,38,0)" xlink:href="#N"/><use transform="matrix(0.05,0,0,0.05,48,0)" xlink:href="#L"/></g><path fill="#333" d="M33-154v-36h34v36H33zM33 0v-36h34V0H33" id="Z"/><g id="k"><use transform="matrix(0.05,0,0,0.05,0,0)" xlink:href="#I"/><use transform="matrix(0.05,0,0,0.05,10,0)" xlink:href="#D"/><use transform="matrix(0.05,0,0,0.05,20,0)" xlink:href="#A"/><use transform="matrix(0.05,0,0,0.05,34.95,0)" xlink:href="#B"/><use transform="matrix(0.05,0,0,0.05,44.95,0)" xlink:href="#S"/><use transform="matrix(0.05,0,0,0.05,48.900000000000006,0)" xlink:href="#E"/><use transform="matrix(0.05,0,0,0.05,58.900000000000006,0)" xlink:href="#Z"/></g><path fill="#333" d="M115-194c55 1 70 41 70 98S169 2 115 4C84 4 66-9 55-30l1 105H24l-1-265h31l2 30c10-21 28-34 59-34zm-8 174c40 0 45-34 45-75s-6-73-45-74c-42 0-51 32-51 76 0 43 10 73 51 73" id="aa"/><path fill="#333" d="M106-169C34-169 62-67 57 0H25v-261h32l-1 103c12-21 28-36 61-36 89 0 53 116 60 194h-32v-121c2-32-8-49-39-48" id="ab"/><path fill="#333" d="M108 0H70L1-190h34L89-25l56-165h34" id="ac"/><path fill="#333" d="M33 0v-38h34V0H33" id="ad"/><g id="l"><use transform="matrix(0.05,0,0,0.05,0,0)" xlink:href="#aa"/><use transform="matrix(0.05,0,0,0.05,10,0)" xlink:href="#G"/><use transform="matrix(0.05,0,0,0.05,13.949999999999998,0)" xlink:href="#B"/><use transform="matrix(0.05,0,0,0.05,23.95,0)" xlink:href="#L"/><use transform="matrix(0.05,0,0,0.05,28.950000000000003,0)" xlink:href="#T"/><use transform="matrix(0.05,0,0,0.05,33.95,0)" xlink:href="#L"/><use transform="matrix(0.05,0,0,0.05,38.95,0)" xlink:href="#N"/><use transform="matrix(0.05,0,0,0.05,48.95,0)" xlink:href="#L"/><use transform="matrix(0.05,0,0,0.05,53.95,0)" xlink:href="#B"/><use transform="matrix(0.05,0,0,0.05,63.95,0)" xlink:href="#Y"/><use transform="matrix(0.05,0,0,0.05,72.95,0)" xlink:href="#N"/><use transform="matrix(0.05,0,0,0.05,82.95,0)" xlink:href="#ab"/><use transform="matrix(0.05,0,0,0.05,92.95,0)" xlink:href="#D"/><use transform="matrix(0.05,0,0,0.05,102.95,0)" xlink:href="#A"/><use transform="matrix(0.05,0,0,0.05,117.9,0)" xlink:href="#N"/><use transform="matrix(0.05,0,0,0.05,127.9,0)" xlink:href="#I"/><use transform="matrix(0.05,0,0,0.05,137.9,0)" xlink:href="#N"/><use transform="matrix(0.05,0,0,0.05,147.9,0)" xlink:href="#ac"/><use transform="matrix(0.05,0,0,0.05,155.55,0)" xlink:href="#ad"/><use transform="matrix(0.05,0,0,0.05,160.55,0)" xlink:href="#U"/><use transform="matrix(0.05,0,0,0.05,169.55,0)" xlink:href="#D"/><use transform="matrix(0.05,0,0,0.05,179.55,0)" xlink:href="#A"/></g><g id="m"><use transform="matrix(0.05,0,0,0.05,0,0)" xlink:href="#E"/><use transform="matrix(0.05,0,0,0.05,10,0)" xlink:href="#B"/><use transform="matrix(0.05,0,0,0.05,20,0)" xlink:href="#A"/><use transform="matrix(0.05,0,0,0.05,34.95,0)" xlink:href="#N"/><use transform="matrix(0.05,0,0,0.05,44.95,0)" xlink:href="#Z"/></g><path d="M212-179c-10-28-35-45-73-45-59 0-87 40-87 99 0 60 29 101 89 101 43 0 62-24 78-52l27 14C228-24 195 4 139 4 59 4 22-46 18-125c-6-104 99-153 187-111 19 9 31 26 39 46" id="ae"/><path d="M100-194c62-1 85 37 85 99 1 63-27 99-86 99S16-35 15-95c0-66 28-99 85-99zM99-20c44 1 53-31 53-75 0-43-8-75-51-75s-53 32-53 75 10 74 51 75" id="af"/><path d="M85-194c31 0 48 13 60 33l-1-100h32l1 261h-30c-2-10 0-23-3-31C134-8 116 4 85 4 32 4 16-35 15-94c0-66 23-100 70-100zm9 24c-40 0-46 34-46 75 0 40 6 74 45 74 42 0 51-32 51-76 0-42-9-74-50-73" id="ag"/><path d="M100-194c63 0 86 42 84 106H49c0 40 14 67 53 68 26 1 43-12 49-29l28 8c-11 28-37 45-77 45C44 4 14-33 15-96c1-61 26-98 85-98zm52 81c6-60-76-77-97-28-3 7-6 17-6 28h103" id="ah"/><g id="n"><use transform="matrix(0.05,0,0,0.05,0,0)" xlink:href="#ae"/><use transform="matrix(0.05,0,0,0.05,12.950000000000001,0)" xlink:href="#af"/><use transform="matrix(0.05,0,0,0.05,22.950000000000003,0)" xlink:href="#ag"/><use transform="matrix(0.05,0,0,0.05,32.95,0)" xlink:href="#ah"/></g><path d="M63-220v92h138v28H63V0H30v-248h175v28H63" id="ai"/><path d="M24-231v-30h32v30H24zM24 0v-190h32V0H24" id="aj"/><path d="M24 0v-261h32V0H24" id="ak"/><g id="o"><use transform="matrix(0.05,0,0,0.05,0,0)" xlink:href="#ai"/><use transform="matrix(0.05,0,0,0.05,10.950000000000001,0)" xlink:href="#aj"/><use transform="matrix(0.05,0,0,0.05,14.9,0)" xlink:href="#ak"/><use transform="matrix(0.05,0,0,0.05,18.85,0)" xlink:href="#ah"/></g><path fill="#333" d="M141 0L90-78 38 0H4l68-98-65-92h35l48 74 47-74h35l-64 92 68 98h-35" id="al"/><g id="p"><use transform="matrix(0.05,0,0,0.05,0,0)" xlink:href="#S"/><use transform="matrix(0.05,0,0,0.05,3.95,0)" xlink:href="#E"/><use transform="matrix(0.05,0,0,0.05,13.949999999999998,0)" xlink:href="#I"/><use transform="matrix(0.05,0,0,0.05,23.95,0)" xlink:href="#N"/><use transform="matrix(0.05,0,0,0.05,33.95,0)" xlink:href="#al"/><use transform="matrix(0.05,0,0,0.05,42.95,0)" xlink:href="#ad"/><use transform="matrix(0.05,0,0,0.05,47.95,0)" xlink:href="#ab"/><use transform="matrix(0.05,0,0,0.05,57.95,0)" xlink:href="#L"/><use transform="matrix(0.05,0,0,0.05,62.95,0)" xlink:href="#A"/><use transform="matrix(0.05,0,0,0.05,77.9,0)" xlink:href="#G"/></g><g id="q"><use transform="matrix(0.05,0,0,0.05,0,0)" xlink:href="#N"/><use transform="matrix(0.05,0,0,0.05,10,0)" xlink:href="#K"/><use transform="matrix(0.05,0,0,0.05,15.949999999999998,0)" xlink:href="#K"/><use transform="matrix(0.05,0,0,0.05,21.9,0)" xlink:href="#D"/><use transform="matrix(0.05,0,0,0.05,31.899999999999995,0)" xlink:href="#K"/><use transform="matrix(0.05,0,0,0.05,36.85,0)" xlink:href="#ad"/><use transform="matrix(0.05,0,0,0.05,41.85,0)" xlink:href="#ab"/><use transform="matrix(0.05,0,0,0.05,51.85,0)" xlink:href="#L"/><use transform="matrix(0.05,0,0,0.05,56.85,0)" xlink:href="#A"/><use transform="matrix(0.05,0,0,0.05,71.8,0)" xlink:href="#G"/></g></defs></g></svg>